# xmcd
#
# Track frame offsets:
#	150
#	13352
#	28525
#	44252
#	58337
#	67592
#	78535
#	92212
#	107900
#	119790
#	132337
#	143067
#	151275
#	162377
#	172767
#
# Disc length: 2461 seconds
#
# Revision: 0
# Processed by: cddbd v1.5.1PL2 Copyright (c) Steve Scherf et al.
# Submitted via: dBpowerAMP V4.0
#
DISCID=cd099b0f
DTITLE=Dennis Lee - Dulcimer Favorites
DYEAR=1900
DGENRE=Bluegrass
TTITLE0=Arkansas Traveler
TTITLE1=The Tennessee Waltz
TTITLE2=Grandfather's Clock
TTITLE3=Greensleeves
TTITLE4=The 8th Of January
TTITLE5=Southwind
TTITLE6=Around The Horny Old Joe Clark
TTITLE7=Golden Slippers
TTITLE8=Red River Valley
TTITLE9=Wildwood Flower
TTITLE10=Oh Suzannah
TTITLE11=Wabash Cannonball
TTITLE12=I'll Fly Away
TTITLE13=O'Carolyn's Draught
TTITLE14=Gary Owen's Irish Washerwoman
EXTD=
EXTT0=
EXTT1=
EXTT2=
EXTT3=
EXTT4=
EXTT5=
EXTT6=
EXTT7=
EXTT8=
EXTT9=
EXTT10=
EXTT11=
EXTT12=
EXTT13=
EXTT14=
PLAYORDER=
